<?xml version="1.0" encoding="utf-8"?>
<!-- Generator: Adobe Illustrator 15.0.0, SVG Export Plug-In . SVG Version: 6.00 Build 0)  -->
<!DOCTYPE svg PUBLIC "-//W3C//DTD SVG 1.1//EN" "http://www.w3.org/Graphics/SVG/1.1/DTD/svg11.dtd">
<svg version="1.1" id="Layer_1" xmlns="http://www.w3.org/2000/svg" xmlns:xlink="http://www.w3.org/1999/xlink" x="0px" y="0px"
	 width="595.28px" height="841.89px" viewBox="0 0 595.28 841.89" enable-background="new 0 0 595.28 841.89" xml:space="preserve">
<path fill="#204386" d="M12.166,359.378v348.663h572.971V359.378H12.166z M365.48,485.082l-0.297,0.578l-0.5,1.063l-0.047,0.125
	l-0.578,0.688l-0.859,1.063l-0.563,0.719l-1.156,1.094l-1.016,0.953l-1.406,1.156l-1.125,0.875l-1.016,0.703l-1.625,1.094
	l-2.047,1.328l-1.734,1l-0.563,0.344l-4.563,1.932l-4.959,1.5l-4.291,0.959l-0.709,0.25h-2.459h-4.375l-3.041-0.541l-2.875-0.625
	l-1.916-0.459l-2.334-0.875l-1.25-0.375l-2.041-0.416l-2.043-0.834l-3-1.459l-3.082-1.375l-2.834-1.375l-1.625-0.791l-0.459-0.334
	l-1.541-1.25l-0.916-0.666l-0.75-0.416l-0.631-0.625l-1.62-1.875l-0.813,0.932l-0.922,1.094l-0.344,0.406l-0.5,0.438l-0.969,0.844
	l-0.719,0.547l-0.719,0.594l-0.438,0.234l-1.37,0.807l-1.792,0.896l-1.417,0.688l-1.646,0.625l-0.813,0.334l-0.396,0.082
	l-0.604,0.146l-0.729,0.188l-0.792,0.125l-0.729,0.104l-0.313,0.021l2.396-4.938l0.641-1.281l0.844-1.828l0.547-1.266l0.484-1.234
	l0.328-0.766l0.313-0.656v-1.875v-0.947v-0.938v-0.938l-0.594-1.563l-0.583-1.709l-1.188-2l-1.563-2.604l-0.854-1.646l-0.563-1
	l-0.479-0.875v-0.084l1.042,0.334l1.87,0.584l0.484,0.104l0.792,0.416l1.417,0.668l0.958,0.438l1.021,0.52l0.688,0.459l0.771,0.479
	l0.583,0.375l0.854,0.563l1.042,0.646l1.021,0.604l0.438,0.271l0.646,0.729l0.396,0.375l0.912,0.99v1.281l1.25,0.063h0.406
	l1.204-1.094l1-0.828l0.172-0.141l1.797-1.219l2.484-1.609l2.734-1.672l2.375-1.375l2.563-1.219l0.781-0.375l2.5-0.844l1.078-0.359
	l1.172-0.422l1.594-0.547l0.531-0.188l1.172-0.297l1.391-0.359l0.641-0.203l0.469-0.078l1.047-0.141l1.359-0.188l1.266-0.188
	l0.469-0.094h0.5h3.906h2.078l2,0.234l0.859,0.094l0.672,0.125l0.5,0.078l0.797,0.156l0.641,0.109l0.297,0.078l0.734,0.234
	l0.859,0.281l0.516,0.141l0.719,0.25l0.672,0.203l0.641,0.219l0.609,0.266l0.859,0.359l0.938,0.438l1.281,0.594l1.734,0.922
	l1.484,0.844l1.078,0.578l0.906,0.656l1.078,0.75l1.063,0.781l1.297,1.047l1.047,0.844l0.703,0.516l0.703,0.672l1.531,1.469
	l1.016,1.031l0.656,0.688l0.422,0.391l0.438,0.594l0.563,0.656l0.75,0.953l0.469,0.719l0.406,0.594l0.328,0.828V485.082z"/>
<g>
	
		<text transform="matrix(0.9919 0 0 1 299.9492 279.3618)" fill="#1F4486" stroke="#1F4486" stroke-width="3" stroke-miterlimit="10" font-family="'MyriadPro-Bold'" font-size="151.1281">IWS</text>
	
		<rect x="12.144" y="136.079" fill="none" stroke="#1F4486" stroke-width="15" stroke-linecap="round" stroke-linejoin="round" stroke-miterlimit="10" width="572.598" height="572.599"/>
</g>
<line fill="#0096C7" x1="112.739" y1="385.185" x2="484.564" y2="385.185"/>
<path fill="none" stroke="#0096C7" stroke-width="7" stroke-miterlimit="10" d="M190.06,465.008"/>
<path fill="none" stroke="#0096C7" stroke-width="7" stroke-miterlimit="10" d="M163.06,438.336"/>
<path fill="#0096C7" d="M177.096,447.178"/>
<path fill="#0096C7" d="M172.011,458.529"/>
<path d="M325.178,497.379"/>
<path fill="#0096C7" stroke="#0096C7" stroke-miterlimit="10" d="M576.938,349.712c0,0-122.396-2.983-194.338-23.824
	c0,0-33.459-10.37-83.446-10.41h-1.004c-49.987,0.04-83.445,10.41-83.445,10.41c-71.942,20.84-194.338,23.824-194.338,23.824v88.001
	l85.092,5.064c-2.271,1.852,68.979-12.398,109.246,80.961c0,0,33.458,77.551,83.445,77.84c0.168-0.002,0.334-0.006,0.502-0.008
	c0.167,0.002,0.334,0.006,0.502,0.008c49.987-0.289,83.446-77.84,83.446-77.84c40.266-93.359,111.516-79.109,109.246-80.961
	l85.092-5.064V349.712z M365.48,485.082l-0.297,0.578l-0.5,1.063l-0.047,0.125l-0.578,0.688l-0.859,1.063l-0.563,0.719l-1.156,1.094
	l-1.016,0.953l-1.406,1.156l-1.125,0.875l-1.016,0.703l-1.625,1.094l-2.047,1.328l-1.734,1l-0.563,0.344l-4.563,1.932l-4.959,1.5
	l-4.291,0.959l-0.709,0.25h-2.459h-4.375l-3.041-0.541l-2.875-0.625l-1.916-0.459l-2.334-0.875l-1.25-0.375l-2.041-0.416
	l-2.043-0.834l-3-1.459l-3.082-1.375l-2.834-1.375l-1.625-0.791l-0.459-0.334l-1.541-1.25l-0.916-0.666l-0.75-0.416l-0.631-0.625
	l-1.62-1.875l-0.813,0.932l-0.922,1.094l-0.344,0.406l-0.5,0.438l-0.969,0.844l-0.719,0.547l-0.719,0.594l-0.438,0.234l-1.37,0.807
	l-1.792,0.896l-1.417,0.688l-1.646,0.625l-0.813,0.334l-0.396,0.082l-0.604,0.146l-0.729,0.188l-0.792,0.125l-0.729,0.104
	l-0.313,0.021l2.396-4.938l0.641-1.281l0.844-1.828l0.547-1.266l0.484-1.234l0.328-0.766l0.313-0.656v-1.875v-0.947v-0.938v-0.938
	l-0.594-1.563l-0.583-1.709l-1.188-2l-1.563-2.604l-0.854-1.646l-0.563-1l-0.479-0.875v-0.084l1.042,0.334l1.87,0.584l0.484,0.104
	l0.792,0.416l1.417,0.668l0.958,0.438l1.021,0.52l0.688,0.459l0.771,0.479l0.583,0.375l0.854,0.563l1.042,0.646l1.021,0.604
	l0.438,0.271l0.646,0.729l0.396,0.375l0.912,0.99v1.281l1.25,0.063h0.406l1.204-1.094l1-0.828l0.172-0.141l1.797-1.219l2.484-1.609
	l2.734-1.672l2.375-1.375l2.563-1.219l0.781-0.375l2.5-0.844l1.078-0.359l1.172-0.422l1.594-0.547l0.531-0.188l1.172-0.297
	l1.391-0.359l0.641-0.203l0.469-0.078l1.047-0.141l1.359-0.188l1.266-0.188l0.469-0.094h0.5h3.906h2.078l2,0.234l0.859,0.094
	l0.672,0.125l0.5,0.078l0.797,0.156l0.641,0.109l0.297,0.078l0.734,0.234l0.859,0.281l0.516,0.141l0.719,0.25l0.672,0.203
	l0.641,0.219l0.609,0.266l0.859,0.359l0.938,0.438l1.281,0.594l1.734,0.922l1.484,0.844l1.078,0.578l0.906,0.656l1.078,0.75
	l1.063,0.781l1.297,1.047l1.047,0.844l0.703,0.516l0.703,0.672l1.531,1.469l1.016,1.031l0.656,0.688l0.422,0.391l0.438,0.594
	l0.563,0.656l0.75,0.953l0.469,0.719l0.406,0.594l0.328,0.828V485.082z"/>
<path fill="none" stroke="#1F4486" stroke-width="3" stroke-miterlimit="10" d="M319.201,315.479"/>
<path fill="none" stroke="#1F4486" stroke-width="3" stroke-miterlimit="10" d="M319.703,280.896"/>
<path fill="none" stroke="#1F4486" stroke-width="3" stroke-miterlimit="10" d="M405.779,171.493"/>
<path fill="none" stroke="#1F4486" stroke-width="3" stroke-miterlimit="10" d="M406.281,144.892"/>
<path fill="none" stroke="#1F4486" stroke-width="3" stroke-miterlimit="10" d="M324.02,176.578"/>
<path fill="none" stroke="#1F4486" stroke-width="3" stroke-miterlimit="10" d="M324.301,141.996"/>
<path fill="none" stroke="#1F4486" stroke-width="3" stroke-miterlimit="10" d="M551.512,252.7"/>
<path fill="none" stroke="#1F4486" stroke-width="3" stroke-miterlimit="10" d="M576.938,252.7"/>
</svg>
