<?xml version="1.0" encoding="UTF-8"?> <svg xmlns="http://www.w3.org/2000/svg" xmlns:xlink="http://www.w3.org/1999/xlink" version="1.1" id="Layer_1" x="0px" y="0px" viewBox="0 0 301.8 34.6" style="enable-background:new 0 0 301.8 34.6;" xml:space="preserve"> <g> <g> <g> <path d="M0.6,32.5c1.3,0,2.2-0.1,2.7-0.2s0.9-0.4,1.1-0.8c0.2-0.4,0.3-1,0.3-1.8V5c0-0.9-0.1-1.5-0.3-1.9 C4.2,2.7,3.9,2.4,3.3,2.3C2.8,2.1,1.9,2,0.6,2V0.3h24.9v8.5h-1.3c-0.4-1.7-0.9-3.1-1.4-3.9C22.3,4,21.6,3.4,20.7,3 c-0.9-0.4-2.3-0.6-4-0.6h-3.8c-0.8,0-1.3,0.1-1.6,0.4c-0.3,0.2-0.4,0.7-0.4,1.4v12.1h5.6c1.2,0,2.1-0.1,2.7-0.4 c0.6-0.3,1-0.7,1.3-1.3c0.3-0.6,0.5-1.5,0.8-2.7h1.2v10.9h-1.2c-0.2-1.2-0.5-2.1-0.8-2.7c-0.3-0.6-0.7-1-1.3-1.2 s-1.5-0.4-2.7-0.4h-5.6v11.1c0,0.9,0.1,1.5,0.3,1.9c0.2,0.4,0.6,0.6,1.3,0.8s1.7,0.2,3.2,0.2v1.7H0.6V32.5z"></path> <path d="M29.8,32.5c1.3,0,2.2-0.1,2.7-0.2c0.5-0.2,0.9-0.4,1.1-0.8c0.2-0.4,0.3-1,0.3-1.8V5c0-0.9-0.1-1.5-0.3-1.9 s-0.5-0.6-1.1-0.8C32,2.1,31.1,2,29.8,2V0.3h14.5V2C43,2,42,2.1,41.4,2.2c-0.6,0.1-0.9,0.4-1.1,0.8c-0.2,0.4-0.3,1-0.3,1.9v23.4 c0,1.2,0.2,2.1,0.5,2.6s0.8,0.9,1.5,1c0.7,0.1,1.9,0.2,3.5,0.2c1.9,0,3.5-0.2,4.5-0.7c1.1-0.4,1.9-1.2,2.5-2.2 c0.6-1,1.2-2.5,1.7-4.4h1.3l-0.6,9.3H29.8V32.5z"></path> <path d="M91.1,32c0.5,0.3,1.3,0.5,2.6,0.5v1.7H79.9v-1.7h2.3c0.5,0,0.8-0.1,1.1-0.4c0.2-0.2,0.4-0.5,0.4-0.9 c0-0.3-0.1-0.6-0.2-0.9l-3-8.6H70l-2.9,8.8c-0.1,0.3-0.2,0.6-0.2,0.9c0,0.7,0.5,1.1,1.4,1.1h2.5v1.7H60.3v-1.7 c1.3,0,2.3-0.2,2.8-0.6c0.5-0.4,1-1.1,1.4-2.2L75.1,0.3h4.4l10.3,29.6C90.2,31,90.6,31.6,91.1,32z M79.9,20L75.3,6.4h-0.2 L70.6,20H79.9z"></path> <path d="M98.6,32.5c1.3,0,2.2-0.1,2.7-0.2s0.9-0.4,1.1-0.8c0.2-0.4,0.3-1,0.3-1.8V5c0-0.9-0.1-1.5-0.3-1.9 c-0.2-0.4-0.5-0.7-1.1-0.8S99.8,2,98.6,2V0.3h16.2c5.8,0.1,10.1,1.4,13,4.1c2.9,2.6,4.3,6.8,4.3,12.4c0,6.1-1.6,10.5-4.7,13.3 c-3.2,2.7-7.9,4.1-14.2,4.1H98.6V32.5z M122.2,28.5c1.9-2.5,2.8-6.3,2.8-11.5c0-9.7-3.8-14.6-11.3-14.6c-1.9,0-3.1,0.1-3.8,0.4 c-0.6,0.2-1,0.7-1,1.5v25c0,1.2,0.3,1.9,0.9,2.3c0.6,0.4,1.8,0.6,3.6,0.6C117.4,32.1,120.3,30.9,122.2,28.5z"></path> </g> </g> </g> <g> <g> <path d="M193.6,22.6l-3.5-8.5c-0.1-0.2-0.2-0.4-0.3-0.5c-0.1-0.1-0.2-0.2-0.4-0.2c-0.2,0-0.4,0-0.7,0v-0.6h5.1v0.6h-0.6 c-0.2,0-0.3,0.1-0.3,0.2c-0.1,0.1-0.1,0.3,0,0.5l1.7,4.7h0.5L193.6,22.6z M191.1,25.9c-0.3,0-0.7-0.1-1-0.2 c-0.3-0.1-0.5-0.4-0.7-0.6c-0.2-0.3-0.3-0.6-0.3-0.9c0-0.3,0.1-0.7,0.4-0.9c0.2-0.3,0.5-0.4,0.9-0.4c0.4,0,0.6,0.1,0.9,0.3 c0.2,0.2,0.3,0.5,0.3,0.8c0,0.2,0,0.3-0.1,0.4c-0.1,0.1-0.1,0.2-0.2,0.2c-0.1,0.1-0.1,0.1-0.1,0.2c0,0.1,0,0.2,0.1,0.2 c0.1,0.1,0.1,0.1,0.3,0.1c0.2,0,0.5-0.1,0.7-0.4c0.2-0.3,0.5-0.8,0.7-1.4l3.6-9.3c0.1-0.2,0.1-0.3,0-0.4c-0.1-0.1-0.2-0.2-0.3-0.2 h-0.6v-0.6h3.1v0.6c-0.2,0-0.4,0-0.5,0.1c-0.1,0-0.3,0.1-0.4,0.3c-0.1,0.1-0.2,0.4-0.4,0.7l-2.9,7.1c-0.2,0.6-0.4,1.1-0.6,1.6 c-0.2,0.5-0.4,1-0.7,1.4c-0.2,0.4-0.5,0.7-0.8,1C192,25.7,191.6,25.9,191.1,25.9z"></path> <path d="M202.9,22c-1.4,0-2.5-0.4-3.2-1.2c-0.7-0.8-1.1-2-1.1-3.5c0-1.1,0.2-2,0.5-2.7c0.3-0.7,0.8-1.2,1.5-1.6 c0.6-0.3,1.5-0.5,2.4-0.5c0.7,0,1.4,0.1,1.9,0.3c0.5,0.2,1,0.5,1.3,0.9c0.3,0.4,0.6,0.9,0.8,1.5c0.2,0.6,0.2,1.2,0.2,2v0.2h-7 v-0.7h4.1c0-0.8,0-1.4-0.1-1.9s-0.2-0.9-0.4-1.1c-0.2-0.3-0.5-0.4-0.9-0.4c-0.3,0-0.6,0.1-0.8,0.3c-0.2,0.2-0.4,0.6-0.5,1.1 c-0.1,0.5-0.2,1.2-0.2,2.1c0,0.7,0,1.3,0.1,1.8c0.1,0.5,0.2,0.9,0.4,1.3c0.2,0.3,0.4,0.6,0.7,0.7c0.3,0.2,0.7,0.2,1.1,0.2 c0.5,0,0.8-0.1,1.2-0.2c0.3-0.1,0.6-0.4,0.8-0.6c0.2-0.3,0.4-0.6,0.6-0.9l0.7,0.3c-0.2,0.4-0.4,0.8-0.7,1.2 c-0.3,0.4-0.7,0.8-1.2,1S203.8,22,202.9,22z"></path> <path d="M211.3,22c-0.8,0-1.5-0.2-2-0.5s-0.7-0.9-0.7-1.5c0-0.6,0.3-1.2,0.8-1.7c0.5-0.5,1.2-0.9,2.2-1.2c0.9-0.3,2-0.6,3.2-0.8 V17c-1.2,0.2-2.1,0.5-2.6,0.9c-0.5,0.4-0.8,0.9-0.8,1.6c0,0.5,0.1,0.8,0.3,1c0.2,0.2,0.5,0.3,0.9,0.3c0.3,0,0.6-0.1,0.8-0.2 c0.3-0.1,0.5-0.3,0.7-0.5c0.2-0.2,0.4-0.3,0.5-0.5l0.2,0.6c-0.2,0.2-0.5,0.5-0.8,0.8c-0.3,0.3-0.7,0.5-1.1,0.6 C212.4,21.9,211.9,22,211.3,22z M215.8,22c-0.4,0-0.8-0.1-1-0.2c-0.3-0.1-0.5-0.3-0.6-0.5c-0.1-0.2-0.2-0.4-0.2-0.7v-5.7 c0-0.5-0.1-0.9-0.3-1.2c-0.2-0.3-0.6-0.4-1.1-0.4c-0.2,0-0.4,0-0.6,0.1c-0.2,0-0.3,0.1-0.4,0.2c-0.1,0.1-0.2,0.2-0.2,0.3 c0,0.1,0,0.2,0.1,0.3c0.1,0.1,0.2,0.2,0.2,0.3c0.1,0.1,0.1,0.3,0.1,0.5c0,0.3-0.1,0.6-0.3,0.8c-0.2,0.2-0.6,0.4-1,0.4 s-0.8-0.1-1-0.4c-0.2-0.2-0.3-0.5-0.3-0.8c0-0.4,0.1-0.7,0.4-1.1c0.3-0.4,0.7-0.7,1.4-0.9c0.6-0.2,1.5-0.4,2.5-0.4 c1.1,0,1.9,0.2,2.4,0.7c0.5,0.5,0.8,1.3,0.8,2.4v4.2c0,0.5,0,0.8,0.1,0.9c0.1,0.1,0.2,0.2,0.4,0.2c0.2,0,0.3,0,0.4-0.1 c0.1,0,0.2-0.1,0.3-0.1l0.2,0.6c-0.3,0.2-0.7,0.4-1,0.5C216.7,21.9,216.3,22,215.8,22z"></path> <path d="M218.6,21.8v-0.6c0.4,0,0.6,0,0.8-0.1c0.2-0.1,0.3-0.1,0.3-0.3c0.1-0.1,0.1-0.3,0.1-0.6v-5.7c0-0.3,0-0.5-0.1-0.6 c-0.1-0.1-0.2-0.2-0.5-0.2h-0.6v-0.6l3-0.5h0.8v1.8h0.1v5.8c0,0.3,0,0.5,0.1,0.6c0.1,0.1,0.2,0.2,0.4,0.3c0.2,0.1,0.5,0.1,1,0.1 v0.6H218.6z M222.2,16.6v-1.2c0.1-0.2,0.1-0.4,0.3-0.7c0.1-0.3,0.3-0.6,0.5-0.9c0.2-0.3,0.5-0.6,0.8-0.8c0.3-0.2,0.7-0.3,1.2-0.3 c0.5,0,1,0.2,1.3,0.5c0.3,0.3,0.4,0.7,0.4,1.2c0,0.4-0.1,0.7-0.3,1c-0.2,0.3-0.6,0.5-1.1,0.5c-0.4,0-0.7-0.1-0.9-0.3 c-0.2-0.2-0.4-0.5-0.4-0.9c0-0.2,0-0.3,0.1-0.4c0.1-0.1,0.1-0.2,0.2-0.2c0.1-0.1,0.1-0.1,0.1-0.2c0,0,0-0.1-0.1-0.1 c0,0-0.1,0-0.2,0c-0.2,0-0.3,0.1-0.5,0.3c-0.2,0.2-0.3,0.4-0.5,0.7c-0.2,0.3-0.3,0.6-0.4,1c-0.1,0.4-0.2,0.7-0.2,1L222.2,16.6z"></path> <path d="M231.2,22c-0.5,0-0.9,0-1.1-0.1c-0.3-0.1-0.5-0.2-0.7-0.2c-0.2-0.1-0.4-0.1-0.6-0.1c-0.1,0-0.3,0-0.3,0.1 c-0.1,0.1-0.1,0.1-0.2,0.2h-0.5l-0.2-3.1h0.6c0.2,0.8,0.5,1.5,1,2c0.5,0.5,1.1,0.7,1.9,0.7c0.5,0,0.9-0.1,1.2-0.3 c0.3-0.2,0.5-0.6,0.5-1.1c0-0.3-0.1-0.5-0.2-0.6c-0.1-0.2-0.3-0.3-0.5-0.4c-0.2-0.1-0.5-0.3-0.9-0.4l-1-0.3 c-0.9-0.3-1.5-0.7-1.9-1.1s-0.6-1-0.6-1.6c0-0.9,0.3-1.6,0.9-2.1c0.6-0.5,1.5-0.8,2.5-0.8c0.4,0,0.8,0,1,0.1 c0.3,0.1,0.5,0.1,0.6,0.2c0.2,0.1,0.3,0.1,0.5,0.1c0.2,0,0.3,0,0.3-0.1c0.1-0.1,0.1-0.2,0.1-0.2h0.5l0.1,2.8h-0.6 c-0.1-0.5-0.3-0.8-0.5-1.2s-0.5-0.6-0.8-0.8c-0.3-0.2-0.7-0.3-1.1-0.3c-0.5,0-0.9,0.1-1.1,0.3c-0.3,0.2-0.4,0.5-0.4,0.8 c0,0.3,0.1,0.5,0.2,0.6c0.2,0.2,0.4,0.3,0.6,0.4c0.2,0.1,0.5,0.2,0.7,0.3l0.9,0.3c0.6,0.2,1.1,0.4,1.5,0.7 c0.4,0.3,0.7,0.6,0.9,0.9c0.2,0.4,0.3,0.8,0.3,1.3c0,0.6-0.1,1.1-0.4,1.6c-0.3,0.5-0.7,0.8-1.3,1.1C232.7,21.9,232,22,231.2,22z"></path> </g> <g> <path d="M185.1,19.9c-0.4,0.2-0.8,0.3-1.2,0.4c-0.4,0.1-0.7,0.3-1.1,0.3c-0.3,0.1-0.6,0.2-0.9,0.2c-0.2,0-0.3,0-0.5,0 c-0.1,0-0.3,0-0.4-0.1c-0.1,0-0.2-0.1-0.3-0.2c-0.1-0.1-0.2-0.2-0.2-0.3c-0.1-0.1-0.1-0.2-0.2-0.3c-0.1-0.1-0.2-0.1-0.3-0.2 c-0.1,0-0.2-0.1-0.4-0.1c-0.1,0-0.3,0-0.4,0c-0.3,0-0.6,0.1-0.9,0.2c-0.3,0.1-0.7,0.3-1,0.4c-0.4,0.2-0.7,0.4-1.1,0.6 c-0.4,0.2-0.7,0.4-1.1,0.6c-0.4,0.2-0.8,0.4-1.1,0.6c-0.4,0.2-0.7,0.4-1.1,0.6c-0.4,0.2-0.7,0.3-1.1,0.4c-0.4,0.1-0.7,0.2-1,0.3 c-0.2,0-0.4,0-0.5,0c-0.2,0-0.4,0-0.5,0c-0.2,0-0.3-0.1-0.5-0.1c-0.2-0.1-0.3-0.1-0.5-0.3c-0.2-0.1-0.4-0.3-0.5-0.4c0,0,0,0,0,0 l0-1.1c0,0,0,0,0,0c0.1,0.2,0.3,0.3,0.5,0.5c0.2,0.1,0.3,0.2,0.5,0.3c0.2,0.1,0.3,0.1,0.5,0.2c0.2,0,0.3,0.1,0.5,0.1 c0.2,0,0.3,0,0.5,0c0.3,0,0.7-0.1,1-0.2c0.3-0.1,0.7-0.3,1.1-0.4c0.4-0.2,0.7-0.4,1.1-0.6c0.4-0.2,0.7-0.4,1.1-0.6 c0.4-0.2,0.7-0.4,1.1-0.6c0.4-0.2,0.7-0.4,1.1-0.6c0.3-0.2,0.7-0.3,1-0.4c0.3-0.1,0.6-0.2,0.9-0.2c0.1,0,0.3,0,0.4,0 c0.1,0,0.2,0,0.4,0.1c0.1,0,0.2,0.1,0.3,0.2c0.1,0.1,0.2,0.2,0.2,0.3c0.1,0.1,0.1,0.2,0.2,0.3c0.1,0.1,0.2,0.1,0.3,0.2 c0.1,0,0.2,0.1,0.4,0.1c0.1,0,0.3,0,0.5,0c0.3,0,0.6-0.1,0.9-0.2c0.3-0.1,0.7-0.2,1.1-0.3c0.4-0.1,0.8-0.3,1.2-0.4 c0.4-0.2,0.8-0.3,1.2-0.5c0-0.3,0-0.5,0-0.8c0-0.3,0-0.6,0-0.9c-0.1,0-0.2,0.1-0.3,0.1c-0.4,0.2-0.8,0.3-1.2,0.5 c-0.4,0.2-0.8,0.3-1.1,0.4c-0.4,0.1-0.7,0.2-1,0.3c-0.3,0.1-0.6,0.1-0.9,0.2c-0.2,0-0.3,0-0.4,0c-0.1,0-0.3,0-0.4-0.1 c-0.1,0-0.2-0.1-0.3-0.2c-0.1-0.1-0.2-0.2-0.2-0.3c-0.1-0.1-0.1-0.2-0.2-0.3c-0.1-0.1-0.2-0.2-0.3-0.2c-0.1-0.1-0.2-0.1-0.4-0.1 c-0.1,0-0.3,0-0.4,0c-0.3,0-0.6,0.1-0.9,0.2c-0.3,0.1-0.6,0.2-1,0.4c-0.3,0.2-0.7,0.3-1,0.5c-0.4,0.2-0.7,0.4-1.1,0.6 c-0.4,0.2-0.7,0.4-1.1,0.6c-0.4,0.2-0.7,0.4-1.1,0.5c-0.3,0.2-0.7,0.3-1,0.4c-0.3,0.1-0.7,0.2-1,0.2c-0.2,0-0.3,0-0.5,0 c-0.2,0-0.3,0-0.5-0.1c-0.2,0-0.3-0.1-0.5-0.2c-0.2-0.1-0.3-0.2-0.5-0.3c-0.2-0.2-0.4-0.3-0.5-0.5c0,0,0,0,0,0l0,0.7 c0-0.4,0-0.9-0.2-1.2c-0.2-0.4-0.5-0.7-0.9-1c-0.5-0.3-1.1-0.5-2-0.7c-0.8-0.1-1.9-0.2-3.2-0.1c0,0.2,0,0.4,0,0.5 c0,0.9,0.1,1.7,0.3,2.6c1.1-0.1,1.9,0,2.7,0c0.9,0.1,1.6,0.3,2.1,0.5c0.5,0.3,0.8,0.6,1,0.9c0.2,0.4,0.2,0.8,0.2,1.2l0,1.5 c0-0.4-0.1-0.8-0.2-1.1c-0.2-0.4-0.5-0.7-1-0.9c-0.5-0.2-1.2-0.4-2.2-0.5c-0.6,0-1.3,0-2.1,0c0.5,1.3,1.2,2.4,2,3.5 c0.9,0,1.6,0.1,2.1,0.3c0.5,0.2,0.9,0.5,1.1,0.8c0.2,0.3,0.3,0.7,0.2,1l0.1-2.7c0,0,0,0,0,0c0.1,0.2,0.3,0.3,0.6,0.4 c0.2,0.1,0.4,0.2,0.5,0.2c0.2,0.1,0.4,0.1,0.5,0.1c0.2,0,0.4,0,0.5,0c0.2,0,0.4,0,0.5-0.1c0.3-0.1,0.7-0.2,1.1-0.3 c0.4-0.1,0.7-0.3,1.1-0.5c0.4-0.2,0.8-0.4,1.1-0.6c0.4-0.2,0.8-0.4,1.2-0.6c0.4-0.2,0.8-0.4,1.2-0.6c0.4-0.2,0.8-0.4,1.1-0.6 c0.4-0.2,0.7-0.3,1-0.4c0.3-0.1,0.6-0.2,0.9-0.2c0.2,0,0.3,0,0.4,0c0.1,0,0.3,0,0.4,0.1c0.1,0,0.2,0.1,0.3,0.2 c0.1,0.1,0.2,0.2,0.2,0.3c0.1,0.1,0.1,0.2,0.2,0.2c0.1,0.1,0.2,0.1,0.3,0.1c0.1,0,0.3,0,0.4,0c0.1,0,0.3,0,0.5,0 c0.3,0,0.6-0.1,0.9-0.2c0.3-0.1,0.7-0.2,1.1-0.4c0.4-0.1,0.8-0.3,1.2-0.5c0,0,0,0,0,0c0.2-0.7,0.4-1.4,0.5-2.1 C185.7,19.7,185.4,19.8,185.1,19.9z"></path> <path d="M174.3,27.6c0.4-0.2,0.8-0.4,1.2-0.7c0.4-0.2,0.8-0.5,1.2-0.7c0.4-0.2,0.8-0.4,1.2-0.6c0.4-0.2,0.7-0.3,1.1-0.5 c0.3-0.1,0.7-0.2,1-0.3c0.2,0,0.3,0,0.4,0c0.1,0,0.3,0,0.4,0c0.1,0,0.2,0.1,0.3,0.1c0.1,0.1,0.2,0.1,0.2,0.2 c0.1,0.1,0.1,0.2,0.2,0.2c0.1,0.1,0.2,0.1,0.3,0.1c0.1,0,0.3,0,0.4,0c0.1,0,0.3,0,0.5-0.1c0.2,0,0.5-0.1,0.7-0.2 c0.6-0.8,1.2-1.7,1.6-2.6c-0.2,0.1-0.4,0.1-0.6,0.2c-0.4,0.1-0.8,0.3-1.1,0.4c-0.3,0.1-0.7,0.2-1,0.2c-0.2,0-0.3,0-0.5,0 c-0.1,0-0.3,0-0.4,0c-0.1,0-0.2-0.1-0.3-0.1c-0.1-0.1-0.2-0.1-0.2-0.2c-0.1-0.1-0.1-0.2-0.2-0.3c-0.1-0.1-0.2-0.1-0.3-0.2 c-0.1,0-0.2-0.1-0.4-0.1c-0.1,0-0.3,0-0.4,0c-0.3,0-0.6,0.1-0.9,0.2c-0.3,0.1-0.7,0.3-1.1,0.5c-0.4,0.2-0.7,0.4-1.1,0.6 c-0.4,0.2-0.8,0.4-1.2,0.7c-0.4,0.2-0.8,0.4-1.2,0.7c-0.4,0.2-0.8,0.4-1.2,0.6c-0.4,0.2-0.8,0.3-1.1,0.5c-0.4,0.1-0.7,0.2-1.1,0.3 c-0.2,0-0.4,0.1-0.6,0.1c-0.2,0-0.4,0-0.5,0c-0.2,0-0.4-0.1-0.5-0.1c-0.2,0-0.4-0.1-0.5-0.2c-0.2-0.1-0.4-0.2-0.6-0.4c0,0,0,0,0,0 l-0.1,2.2c0.5,0.3,1.1,0.6,1.7,0.8c0,0,0,0,0,0c0.2,0,0.4,0,0.6,0c0.2,0,0.4,0,0.6-0.1c0.4-0.1,0.7-0.2,1.1-0.3 c0.4-0.1,0.8-0.3,1.2-0.5C173.5,28.1,173.9,27.9,174.3,27.6z"></path> <path d="M168.1,15.2c-0.2-0.4-0.4-0.8-0.9-1.1c-0.4-0.3-1.1-0.6-1.9-0.8c-0.7-0.2-1.5-0.3-2.5-0.3c-0.4,0.9-0.6,1.8-0.8,2.7 c1.3,0,2.3,0.1,3.1,0.2c0.9,0.2,1.5,0.4,2,0.7c0.5,0.3,0.7,0.7,0.9,1.1c0.2,0.4,0.2,0.8,0.2,1.3l0-0.4c0,0,0,0,0,0 c0.1,0.2,0.3,0.4,0.5,0.5c0.2,0.1,0.3,0.2,0.5,0.3c0.2,0.1,0.3,0.1,0.5,0.2c0.2,0,0.3,0.1,0.5,0.1c0.2,0,0.3,0,0.5,0 c0.3,0,0.7-0.1,1-0.2c0.3-0.1,0.7-0.2,1-0.4c0.3-0.2,0.7-0.3,1-0.5c0.4-0.2,0.7-0.4,1.1-0.6c0.4-0.2,0.7-0.4,1.1-0.6 c0.4-0.2,0.7-0.4,1-0.5c0.3-0.2,0.7-0.3,1-0.4c0.3-0.1,0.6-0.2,0.9-0.2c0.1,0,0.3,0,0.4,0c0.1,0,0.2,0.1,0.3,0.1 c0.1,0.1,0.2,0.1,0.3,0.2c0.1,0.1,0.2,0.2,0.2,0.3c0.1,0.1,0.1,0.2,0.2,0.3c0.1,0.1,0.2,0.1,0.3,0.2c0.1,0,0.2,0.1,0.4,0.1 c0.1,0,0.3,0,0.4,0c0.3,0,0.6-0.1,0.9-0.1c0.3-0.1,0.7-0.2,1-0.3c0.4-0.1,0.7-0.3,1.1-0.4c0.4-0.1,0.8-0.3,1.2-0.5 c0.1-0.1,0.3-0.1,0.4-0.2c-0.1-0.5-0.2-1-0.3-1.5c-0.2,0.1-0.3,0.1-0.5,0.2c-0.4,0.2-0.8,0.3-1.2,0.4c-0.4,0.1-0.7,0.3-1.1,0.4 c-0.4,0.1-0.7,0.2-1,0.3c-0.3,0.1-0.6,0.1-0.9,0.1c-0.2,0-0.3,0-0.4,0c-0.1,0-0.3-0.1-0.4-0.1c-0.1-0.1-0.2-0.1-0.3-0.2 c-0.1-0.1-0.2-0.2-0.2-0.3c-0.1-0.1-0.1-0.2-0.2-0.3c-0.1-0.1-0.2-0.2-0.3-0.2c-0.1-0.1-0.2-0.1-0.3-0.1c-0.1,0-0.3,0-0.4,0 c-0.3,0-0.5,0.1-0.8,0.2c-0.3,0.1-0.6,0.2-0.9,0.4c-0.3,0.2-0.7,0.3-1,0.5c-0.3,0.2-0.7,0.4-1,0.6c-0.3,0.2-0.7,0.4-1,0.6 c-0.3,0.2-0.7,0.4-1,0.5c-0.3,0.2-0.7,0.3-1,0.4c-0.3,0.1-0.6,0.2-1,0.2c-0.2,0-0.3,0-0.5,0c-0.2,0-0.3-0.1-0.5-0.1 c-0.2-0.1-0.3-0.1-0.5-0.2c-0.2-0.1-0.3-0.2-0.5-0.3c-0.2-0.2-0.4-0.3-0.5-0.5c0,0,0,0,0,0l0-0.2 C168.3,16.1,168.3,15.6,168.1,15.2z"></path> <path d="M182,26.7c-0.1,0-0.2,0-0.3-0.1c-0.1,0-0.2-0.1-0.2-0.2c-0.1-0.1-0.2-0.2-0.2-0.2c-0.1-0.1-0.2-0.1-0.3-0.1 c-0.1,0-0.2,0-0.4,0c-0.1,0-0.3,0-0.4,0.1c-0.3,0.1-0.6,0.2-1,0.3c-0.4,0.1-0.7,0.3-1.1,0.5c-0.4,0.2-0.8,0.4-1.2,0.6 c-0.4,0.2-0.8,0.4-1.2,0.7c-0.4,0.2-0.8,0.5-1.2,0.7c-0.4,0.2-0.8,0.4-1.2,0.6c-0.3,0.1-0.6,0.3-0.9,0.4c0.6,0.1,1.1,0.1,1.7,0.1 c1.6,0,3.1-0.3,4.5-0.9c0.3-0.1,0.6-0.3,0.8-0.4c1.1-0.5,2.1-1.2,2.9-2C182.2,26.7,182.1,26.7,182,26.7z"></path> <path d="M180.9,9.7c-0.3,0.1-0.6,0.1-0.8,0.1c-0.1,0-0.3,0-0.4-0.1c-0.1,0-0.2-0.1-0.3-0.1c-0.1-0.1-0.2-0.1-0.3-0.2 c-0.1-0.1-0.2-0.2-0.2-0.4c-0.1-0.1-0.1-0.3-0.2-0.4c-0.1-0.1-0.2-0.2-0.3-0.3c-0.1-0.1-0.2-0.1-0.3-0.2c-0.1,0-0.2-0.1-0.4-0.1 c-0.2,0-0.5,0-0.8,0.1c-0.3,0.1-0.6,0.2-0.8,0.3c-0.3,0.1-0.6,0.3-0.9,0.5c-0.3,0.2-0.6,0.4-0.9,0.6c-0.3,0.2-0.6,0.4-0.9,0.6 c-0.3,0.2-0.6,0.3-0.9,0.5c-0.3,0.1-0.6,0.3-0.9,0.3c-0.3,0.1-0.6,0.1-0.9,0.1c-0.1,0-0.3,0-0.4-0.1c-0.1,0-0.3-0.1-0.4-0.2 c-0.1-0.1-0.3-0.2-0.4-0.3c-0.1-0.1-0.3-0.2-0.4-0.4c-0.2-0.2-0.3-0.4-0.4-0.6c0,0,0,0,0,0l0,1.5c0,0,0,0,0,0 c0.1,0.2,0.3,0.4,0.4,0.6c0.1,0.2,0.3,0.3,0.4,0.4c0.1,0.1,0.3,0.2,0.4,0.3c0.1,0.1,0.3,0.1,0.4,0.1c0.1,0,0.3,0,0.5,0 c0.3,0,0.6,0,0.9-0.1c0.3-0.1,0.6-0.2,0.9-0.3c0.3-0.1,0.6-0.3,0.9-0.5c0.3-0.2,0.6-0.4,1-0.6c0.3-0.2,0.6-0.4,0.9-0.6 c0.3-0.2,0.6-0.3,0.9-0.5c0.3-0.1,0.6-0.3,0.9-0.3c0.3-0.1,0.5-0.1,0.8-0.1c0.1,0,0.2,0,0.4,0.1c0.1,0,0.2,0.1,0.3,0.2 c0.1,0.1,0.2,0.2,0.3,0.3c0.1,0.1,0.2,0.2,0.2,0.4c0.1,0.1,0.1,0.3,0.2,0.4c0.1,0.1,0.2,0.2,0.3,0.2c0.1,0.1,0.2,0.1,0.3,0.1 c0.1,0,0.3,0,0.4,0.1c0.2,0,0.5,0,0.8-0.1c0.3-0.1,0.6-0.1,0.9-0.2c0.3-0.1,0.7-0.2,1-0.3c0.1-0.1,0.3-0.1,0.4-0.2 c-0.3-0.3-0.6-0.7-0.9-1c-0.3,0.1-0.6,0.2-0.8,0.3C181.5,9.6,181.2,9.7,180.9,9.7z"></path> <path d="M168.3,7.7c0.1,0.4,0.2,0.9,0.2,1.4l0-0.4c0,0,0,0,0,0c0.1,0.2,0.3,0.4,0.4,0.6c0.1,0.2,0.3,0.3,0.4,0.4 c0.1,0.1,0.3,0.2,0.4,0.3c0.1,0.1,0.3,0.1,0.4,0.2c0.1,0,0.3,0.1,0.4,0.1c0.3,0,0.6,0,0.9-0.1c0.3-0.1,0.6-0.2,0.9-0.3 c0.3-0.1,0.6-0.3,0.9-0.5c0.3-0.2,0.6-0.4,0.9-0.5c0.3-0.2,0.6-0.4,0.9-0.5c0.3-0.2,0.6-0.3,0.9-0.5c0.3-0.1,0.6-0.2,0.8-0.3 c0.3-0.1,0.5-0.1,0.7-0.1c0.1,0,0.2,0,0.4,0.1c0.1,0,0.2,0.1,0.3,0.2c0.1,0.1,0.2,0.2,0.3,0.3c0.1,0.1,0.2,0.2,0.2,0.4 c0.1,0.1,0.1,0.3,0.2,0.4c0.1,0.1,0.2,0.2,0.3,0.3c0.1,0.1,0.2,0.1,0.3,0.2c0.1,0,0.3,0.1,0.4,0.1c0.2,0,0.5,0,0.8-0.1 c0.3,0,0.6-0.1,0.9-0.2c0.1,0,0.3-0.1,0.4-0.1c-0.4-0.3-0.7-0.6-1.1-0.9c-0.1,0-0.3,0.1-0.4,0.1c-0.3,0-0.5,0.1-0.8,0 c-0.1,0-0.3,0-0.4-0.1c-0.1,0-0.2-0.1-0.3-0.2c-0.1-0.1-0.2-0.2-0.3-0.3c-0.1-0.1-0.2-0.2-0.2-0.4c-0.1-0.2-0.1-0.3-0.2-0.4 c-0.1-0.1-0.2-0.2-0.3-0.3c-0.1-0.1-0.2-0.1-0.3-0.2c-0.1,0-0.2-0.1-0.3-0.1c-0.2,0-0.5,0-0.7,0.1c-0.3,0.1-0.5,0.2-0.8,0.3 c-0.3,0.1-0.6,0.3-0.9,0.5c-0.3,0.2-0.6,0.4-0.9,0.5c-0.3,0.2-0.6,0.4-0.9,0.5c-0.3,0.2-0.6,0.3-0.9,0.5c-0.3,0.1-0.6,0.2-0.9,0.3 c-0.3,0.1-0.6,0.1-0.8,0.1c-0.1,0-0.3,0-0.4-0.1c-0.1,0-0.3-0.1-0.4-0.2c-0.1-0.1-0.3-0.2-0.4-0.3c-0.1-0.1-0.3-0.2-0.4-0.4 c-0.2-0.2-0.3-0.4-0.4-0.6c0,0,0,0,0,0l0,0c0-0.1,0-0.3,0-0.4c-0.1,0.1-0.3,0.1-0.4,0.2C168.2,7.3,168.3,7.5,168.3,7.7z"></path> <path d="M167.4,9.4c0.4,0.4,0.7,0.8,0.8,1.2c0.1,0.4,0.2,0.9,0.2,1.4l0,1.1c0-0.5,0-1-0.2-1.4c-0.2-0.4-0.4-0.8-0.8-1.2 c-0.4-0.4-1-0.7-1.8-0.9c-0.2,0-0.3-0.1-0.5-0.1c-0.6,0.7-1.1,1.4-1.6,2.2c0.8,0.1,1.4,0.2,2,0.3c0.8,0.2,1.4,0.5,1.9,0.8 c0.4,0.3,0.7,0.7,0.9,1.2c0.2,0.4,0.2,0.9,0.2,1.4l0-0.3l0,0.8c0,0,0,0,0,0c0.1,0.2,0.3,0.4,0.5,0.6c0.2,0.1,0.3,0.2,0.5,0.3 c0.2,0.1,0.3,0.2,0.5,0.2c0.2,0.1,0.3,0.1,0.5,0.1c0.2,0,0.3,0,0.5,0c0.3,0,0.6-0.1,0.9-0.2c0.3-0.1,0.6-0.2,1-0.4 c0.3-0.2,0.7-0.3,1-0.5c0.3-0.2,0.7-0.4,1-0.6c0.3-0.2,0.7-0.4,1-0.6c0.3-0.2,0.7-0.4,1-0.5c0.3-0.2,0.6-0.3,0.9-0.4 c0.3-0.1,0.6-0.1,0.8-0.1c0.1,0,0.3,0,0.4,0c0.1,0,0.2,0.1,0.3,0.1c0.1,0.1,0.2,0.1,0.3,0.2c0.1,0.1,0.2,0.2,0.2,0.3 c0.1,0.1,0.1,0.2,0.2,0.3c0.1,0.1,0.2,0.2,0.3,0.2c0.1,0.1,0.2,0.1,0.4,0.1c0.1,0,0.3,0,0.4,0c0.3,0,0.6-0.1,0.9-0.1 c0.3-0.1,0.6-0.2,1-0.3c0.3-0.1,0.7-0.2,1.1-0.4c0.4-0.1,0.8-0.3,1.1-0.4c0.1-0.1,0.3-0.1,0.4-0.2c-0.2-0.4-0.3-0.9-0.5-1.3 c-0.1,0-0.1,0.1-0.2,0.1c-0.4,0.1-0.8,0.3-1.1,0.4c-0.4,0.1-0.7,0.3-1.1,0.4c-0.3,0.1-0.7,0.2-1,0.3c-0.3,0.1-0.6,0.1-0.8,0.1 c-0.1,0-0.3,0-0.4,0c-0.1,0-0.3-0.1-0.4-0.1c-0.1-0.1-0.2-0.1-0.3-0.2c-0.1-0.1-0.2-0.2-0.2-0.3c-0.1-0.1-0.1-0.3-0.2-0.4 c-0.1-0.1-0.2-0.2-0.3-0.3c-0.1-0.1-0.2-0.1-0.3-0.1c-0.1,0-0.2,0-0.4-0.1c-0.2,0-0.5,0-0.8,0.1c-0.3,0.1-0.6,0.2-0.9,0.4 c-0.3,0.1-0.6,0.3-1,0.5c-0.3,0.2-0.7,0.4-1,0.6c-0.3,0.2-0.7,0.4-1,0.6c-0.3,0.2-0.7,0.4-1,0.5c-0.3,0.1-0.6,0.3-1,0.4 c-0.3,0.1-0.6,0.1-0.9,0.2c-0.2,0-0.3,0-0.5,0c-0.2,0-0.3-0.1-0.5-0.1c-0.2-0.1-0.3-0.1-0.5-0.2c-0.2-0.1-0.3-0.2-0.5-0.4 c-0.2-0.2-0.3-0.4-0.5-0.6c0,0,0,0,0,0l0-0.9c0,0,0,0,0,0c0.1,0.2,0.3,0.4,0.5,0.6c0.1,0.1,0.3,0.3,0.4,0.4 c0.1,0.1,0.3,0.2,0.5,0.2c0.2,0.1,0.3,0.1,0.5,0.1c0.2,0,0.3,0,0.5,0c0.3,0,0.6-0.1,0.9-0.1c0.3-0.1,0.6-0.2,0.9-0.4 c0.3-0.1,0.6-0.3,1-0.5c0.3-0.2,0.7-0.4,1-0.6c0.3-0.2,0.7-0.4,1-0.6c0.3-0.2,0.6-0.4,1-0.5c0.3-0.1,0.6-0.3,0.9-0.4 c0.3-0.1,0.6-0.1,0.8-0.1c0.1,0,0.3,0,0.4,0.1c0.1,0,0.2,0.1,0.3,0.2c0.1,0.1,0.2,0.2,0.3,0.3c0.1,0.1,0.2,0.2,0.2,0.4 c0.1,0.1,0.1,0.2,0.2,0.3c0.1,0.1,0.2,0.2,0.3,0.2c0.1,0.1,0.2,0.1,0.4,0.1c0.1,0,0.3,0,0.4,0c0.3,0,0.5,0,0.8-0.1 c0.3-0.1,0.6-0.2,1-0.3c0.3-0.1,0.7-0.2,1-0.4c0.4-0.1,0.7-0.3,1.1-0.4c0,0,0,0,0,0c-0.2-0.4-0.5-0.8-0.7-1.1 c-0.2,0.1-0.5,0.2-0.7,0.3c-0.4,0.1-0.7,0.2-1,0.3c-0.3,0.1-0.6,0.2-0.9,0.2c-0.3,0.1-0.6,0.1-0.8,0.1c-0.1,0-0.3,0-0.4,0 c-0.1,0-0.2-0.1-0.4-0.1c-0.1-0.1-0.2-0.1-0.3-0.2c-0.1-0.1-0.2-0.2-0.2-0.4c-0.1-0.1-0.1-0.3-0.2-0.4c-0.1-0.1-0.2-0.2-0.3-0.3 c-0.1-0.1-0.2-0.1-0.3-0.2c-0.1,0-0.2-0.1-0.4-0.1c-0.2,0-0.5,0-0.8,0.1c-0.3,0.1-0.6,0.2-0.9,0.3c-0.3,0.1-0.6,0.3-0.9,0.5 c-0.3,0.2-0.6,0.4-1,0.6c-0.3,0.2-0.6,0.4-1,0.6c-0.3,0.2-0.6,0.3-1,0.5c-0.3,0.1-0.6,0.3-0.9,0.3c-0.3,0.1-0.6,0.1-0.9,0.1 c-0.2,0-0.3,0-0.5,0c-0.2,0-0.3-0.1-0.5-0.1c-0.1-0.1-0.3-0.1-0.4-0.2c-0.1-0.1-0.3-0.2-0.4-0.4c-0.2-0.2-0.3-0.4-0.5-0.6 c0,0,0,0,0,0l0-1.6c0-0.5,0-1-0.2-1.4c-0.1-0.4-0.4-0.8-0.7-1.2c-0.6,0.3-1.1,0.7-1.6,1.2C166.6,8.8,167.1,9.1,167.4,9.4z"></path> <path d="M169,7.3c0.1,0.2,0.3,0.3,0.4,0.4c0.1,0.1,0.3,0.2,0.4,0.3c0.1,0.1,0.3,0.1,0.4,0.2c0.1,0,0.3,0.1,0.4,0.1 c0.3,0,0.5,0,0.8-0.1c0.3-0.1,0.6-0.2,0.9-0.3c0.3-0.1,0.6-0.3,0.9-0.5c0.3-0.2,0.6-0.4,0.9-0.5c0.3-0.2,0.6-0.4,0.9-0.5 c0.3-0.2,0.6-0.3,0.9-0.5c0.1,0,0.1-0.1,0.2-0.1c-0.6-0.1-1.3-0.2-1.9-0.2c0,0-0.1,0-0.1,0.1c-0.3,0.2-0.6,0.4-0.9,0.5 c-0.3,0.2-0.6,0.3-0.9,0.4c-0.3,0.1-0.6,0.2-0.8,0.3c-0.3,0.1-0.5,0.1-0.8,0.1c-0.1,0-0.3,0-0.4-0.1c-0.1,0-0.3-0.1-0.4-0.2 c-0.1-0.1-0.3-0.2-0.4-0.3c-0.3,0.1-0.5,0.2-0.8,0.3C168.8,7,168.9,7.2,169,7.3z"></path> </g> <path d="M159,7.1v13.3h3.1l1.6,3.9H159v4.7h-4.8v-4.7h-11.2l-0.8-3.4l12.5-13.8H159z M154.2,13.6l-6.1,6.7h6.1V13.6z"></path> </g> </svg> 