<?xml version="1.0" standalone="no"?>
<!DOCTYPE svg PUBLIC "-//W3C//DTD SVG 20010904//EN"
 "http://www.w3.org/TR/2001/REC-SVG-20010904/DTD/svg10.dtd">
<svg version="1.0" xmlns="http://www.w3.org/2000/svg"
 width="344.000000pt" height="423.000000pt" viewBox="0 0 344.000000 423.000000"
 preserveAspectRatio="xMidYMid meet">

<g transform="translate(0.000000,423.000000) scale(0.100000,-0.100000)"
fill="#000000" stroke="none">
<path d="M2989 3677 c-104 -30 -154 -98 -147 -202 6 -91 34 -123 156 -181 122
-58 142 -76 142 -126 0 -93 -127 -128 -246 -68 -21 11 -39 20 -40 20 -1 0 -10
-23 -19 -51 -16 -48 -16 -51 1 -64 34 -24 107 -40 185 -39 92 1 157 29 203 87
41 52 49 152 17 215 -25 49 -53 70 -157 117 -43 20 -89 46 -101 57 -45 43 -21
118 43 134 35 9 117 -2 152 -20 l29 -15 12 41 c7 22 15 46 18 54 14 36 -163
65 -248 41z m198 -40 c6 -4 9 -16 6 -26 -4 -17 -9 -18 -32 -9 -43 17 -142 14
-179 -6 -40 -21 -66 -75 -58 -121 9 -45 47 -77 158 -129 108 -51 138 -82 145
-151 14 -117 -72 -195 -215 -195 -56 0 -139 17 -147 30 -3 5 -2 15 1 23 5 14
10 14 46 1 22 -8 71 -14 108 -14 53 0 74 5 101 23 40 27 66 89 55 132 -11 42
-73 97 -133 118 -150 53 -206 143 -154 246 20 39 55 67 100 82 29 10 181 6
198 -4z"/>
<path d="M1760 3325 l0 -355 60 0 60 0 0 355 0 355 -60 0 -60 0 0 -355z m80 0
l0 -315 -25 0 -25 0 0 315 0 315 25 0 25 0 0 -315z"/>
<path d="M1960 3673 c-1 -4 39 -165 87 -356 l88 -348 59 3 60 3 65 239 c44
160 68 232 73 220 4 -11 31 -119 59 -242 l53 -223 60 3 59 3 98 345 c55 190
99 349 99 353 0 4 -28 7 -62 5 l-61 -3 -61 -232 c-34 -127 -63 -234 -66 -237
-3 -2 -27 88 -54 202 -73 306 -57 272 -125 272 l-58 0 -62 -233 c-33 -128 -61
-239 -61 -246 0 -44 -21 26 -70 237 l-56 237 -62 3 c-34 2 -62 -1 -62 -5z"/>
<path d="M1690 2758 c0 -10 57 -312 91 -485 l10 -53 44 0 43 0 28 145 c15 80
31 142 35 137 3 -4 16 -63 29 -132 12 -69 25 -131 27 -137 3 -8 23 -13 48 -13
l42 0 46 238 c25 130 49 254 53 275 l6 38 -48 -3 -49 -3 -26 -150 c-15 -82
-27 -147 -28 -144 -3 16 -51 257 -56 277 -4 18 -12 22 -44 22 -45 0 -39 15
-77 -192 -9 -53 -21 -95 -24 -93 -4 2 -17 68 -30 145 l-23 140 -48 0 c-31 0
-49 -4 -49 -12z"/>
<path d="M2334 2746 c-43 -19 -47 -29 -33 -75 l12 -40 28 19 c31 23 69 26 87
8 7 -7 12 -33 12 -59 0 -55 -47 -156 -118 -251 -31 -42 -42 -67 -42 -93 l0
-35 135 0 135 0 0 45 0 44 -70 3 -70 3 36 54 c87 129 112 232 76 315 -16 35
-30 50 -56 61 -44 18 -91 19 -132 1z"/>
<path d="M2654 2744 c-123 -60 -126 -456 -3 -519 71 -37 147 8 176 105 26 85
23 258 -6 333 -34 88 -94 117 -167 81z m73 -101 c15 -22 18 -49 18 -153 0
-134 -14 -194 -44 -188 -30 6 -43 75 -39 203 5 154 25 199 65 138z"/>
<path d="M2914 2746 c-43 -19 -47 -29 -33 -75 l12 -40 28 19 c31 23 69 26 87
8 7 -7 12 -33 12 -59 0 -55 -47 -156 -118 -251 -31 -42 -42 -67 -42 -93 l0
-35 135 0 135 0 0 45 0 44 -70 3 -70 3 36 54 c87 129 112 232 76 315 -16 35
-30 50 -56 61 -44 18 -91 19 -132 1z m133 -50 c26 -22 28 -30 28 -93 -1 -77
-23 -130 -101 -239 -63 -88 -61 -93 39 -97 l82 -3 -97 -2 c-54 -1 -98 2 -98 6
0 4 21 37 46 73 101 142 136 257 100 327 -17 34 -64 50 -108 37 -18 -5 -20 -4
-8 4 28 19 87 13 117 -13z"/>
<path d="M3195 2728 c-2 -13 -9 -61 -15 -108 -6 -47 -13 -96 -16 -110 -4 -24
-3 -25 52 -25 67 0 94 -24 94 -86 0 -76 -35 -110 -98 -95 -52 13 -55 12 -64
-24 -11 -40 3 -56 59 -66 144 -27 251 137 181 276 -19 38 -31 48 -75 65 -35
13 -51 25 -48 33 3 8 5 27 5 43 l0 29 70 0 70 0 0 45 0 45 -105 0 c-100 0
-105 -1 -110 -22z m114 -25 c-75 -4 -69 5 -85 -121 -4 -29 -9 -51 -11 -48 -3
3 0 43 7 90 l12 86 72 -2 71 -2 -66 -3z m1 -188 c82 -42 79 -195 -4 -246 -31
-19 -101 -26 -110 -11 -2 4 13 6 34 4 21 -2 48 1 59 8 81 43 80 203 -2 244
-18 8 -26 16 -19 16 7 0 26 -7 42 -15z"/>
<path d="M40 1544 c0 -39 -5 -63 -16 -75 -33 -37 27 -140 92 -158 43 -12 77
-1 116 36 l28 26 20 -26 c24 -30 74 -47 114 -40 15 3 40 19 57 35 l30 30 20
-26 c41 -52 137 -52 178 0 l20 26 30 -30 c17 -16 42 -32 57 -35 40 -7 90 10
114 40 l20 26 28 -26 c56 -53 123 -54 172 -2 l24 25 25 -24 c56 -54 121 -54
171 -1 l24 25 26 -25 c53 -51 121 -52 171 -3 l30 30 20 -26 c23 -29 74 -46
113 -39 15 3 40 18 57 34 l31 29 28 -29 c50 -49 129 -46 170 7 l22 27 18 -23
c46 -56 131 -59 180 -7 l24 25 25 -24 c56 -54 121 -54 171 -1 l24 25 26 -25
c55 -52 134 -49 180 7 l18 23 22 -27 c41 -53 120 -56 170 -6 l30 30 30 -30
c16 -16 41 -32 56 -35 40 -7 90 10 114 40 l20 26 28 -26 c72 -68 155 -50 203
45 23 45 24 62 4 78 -10 9 -15 31 -15 72 0 57 -1 59 -22 52 -33 -10 -65 -33
-72 -51 -5 -12 -13 -9 -41 16 -20 17 -46 33 -60 37 -34 8 -91 -13 -115 -43
l-20 -26 -20 25 c-10 14 -33 31 -50 38 -41 17 -101 0 -129 -37 l-21 -26 -20
26 c-24 30 -81 51 -115 43 -14 -4 -40 -20 -59 -37 -33 -28 -35 -29 -45 -11
-16 29 -77 55 -115 48 -18 -4 -45 -20 -61 -36 l-29 -30 -31 30 c-17 16 -45 32
-62 36 -36 7 -98 -19 -114 -48 -10 -18 -12 -17 -45 11 -19 17 -45 33 -59 37
-34 8 -91 -13 -115 -43 l-20 -26 -20 25 c-10 14 -33 31 -50 38 -41 17 -101 0
-129 -37 l-21 -26 -20 26 c-24 30 -81 51 -115 43 -14 -4 -40 -20 -59 -37 -35
-30 -35 -30 -46 -9 -16 29 -76 53 -115 46 -17 -4 -44 -20 -60 -36 l-29 -30
-29 30 c-50 51 -122 49 -169 -5 l-22 -25 -30 29 c-17 16 -43 33 -58 36 -37 9
-95 -12 -115 -41 l-15 -24 -34 30 c-19 16 -45 32 -59 36 -34 8 -91 -13 -115
-43 l-20 -26 -21 26 c-28 37 -88 54 -129 37 -17 -7 -40 -24 -50 -38 l-20 -25
-20 26 c-25 31 -81 51 -118 42 -15 -3 -41 -20 -59 -37 -27 -26 -33 -29 -39
-15 -7 18 -38 41 -71 51 -22 7 -23 5 -23 -50z"/>
<path d="M40 650 c0 -75 1 -80 22 -80 39 0 94 -75 182 -247 130 -254 203 -323
346 -323 143 0 215 68 347 324 104 204 140 246 208 246 68 0 104 -42 208 -246
132 -256 204 -324 347 -324 143 0 215 68 347 324 104 204 140 246 208 246 68
0 104 -42 208 -246 132 -256 204 -324 347 -324 143 0 215 68 347 324 88 173
143 246 183 246 18 0 20 7 20 81 l0 82 -45 -5 c-64 -8 -137 -59 -189 -132 -24
-33 -78 -129 -120 -212 -89 -177 -130 -224 -196 -224 -66 0 -107 47 -196 224
-91 180 -140 253 -197 293 -66 46 -99 56 -180 52 -139 -8 -203 -73 -341 -345
-89 -177 -130 -224 -196 -224 -66 0 -107 47 -196 224 -96 190 -148 263 -216
307 -45 29 -63 34 -125 38 -161 8 -231 -57 -377 -345 -89 -177 -130 -224 -196
-224 -62 0 -105 46 -180 192 -35 68 -67 125 -72 126 -4 2 -8 10 -8 19 0 24
-49 100 -96 149 -50 51 -113 83 -161 84 l-33 0 0 -80z"/>
</g>
</svg>
